<svg height="512pt" viewBox="0 -21 512.00159 512" width="512pt" xmlns="http://www.w3.org/2000/svg"><path d="m379.664062 274.160156 67.566407-66.859375c5.796875-5.796875 13.5625-9.199219 21.753906-9.535156l3.660156-.148437c12.625-.519532 24.023438 7.523437 27.769531 19.597656 2.960938 9.539062.835938 19.929687-5.632812 27.539062l-81.820312 96.257813c-3.203126 3.769531-6.878907 7.105469-10.941407 9.933593-8.277343 5.757813-17.929687 9.230469-27.980469 10.066407l-11.636718.972656c-1.582032.132813-3.171875.195313-4.757813.195313h-121.414062c-8.785157 0-17.5625.507812-26.285157 1.523437l-33.710937 3.925781-73.378906-70.761718s40.828125-77.121094 121.429687-54.820313c15.074219 4.171875 30.671875 6.164063 46.316406 6.164063h79.796876c8.058593 0 15.769531 3.277343 21.359374 9.082031 10.339844 10.742187 11.097657 27.488281 1.765626 39.117187l-.3125.394532c-5.628907 7.011718-14.132813 11.089843-23.125 11.089843h-69.46875" fill="#f2d1a5"/><path d="m108.964844 441.492188 18.480468 17.597656 50.847657-52.164063c9.988281-10.246093 9.757812-26.65625-.511719-36.621093l-79.753906-77.394532c-10.28125-9.976562-26.710938-9.699218-36.648438.617188l-51.574218 53.542968 41.476562 40.910157" fill="#5ecef4"/><path d="m96.644531 343.945312c0 9.460938-7.667969 17.128907-17.128906 17.128907-9.457031 0-17.128906-7.667969-17.128906-17.128907 0-9.457031 7.671875-17.128906 17.128906-17.128906 9.460937 0 17.128906 7.671875 17.128906 17.128906zm0 0" fill="#fff"/><path d="m389.394531 106.140625c0 53.078125-43.027343 96.109375-96.109375 96.109375-53.082031 0-96.109375-43.03125-96.109375-96.109375 0-17.386719 4.613281-33.691406 12.6875-47.761719 3.695313-6.445312 8.121094-12.421875 13.160157-17.816406 3.386718-3.632812 7.054687-6.996094 10.96875-10.066406 16.332031-12.820313 36.921874-20.46875 59.292968-20.46875 53.082032 0 96.109375 43.03125 96.109375 96.113281zm0 0" fill="#fcb651"/><path d="m510.222656 214.242188c-5.085937-16.390626-20.605468-27.332032-37.761718-26.644532l-3.660157.148438c-10.734375.4375-20.832031 4.863281-28.394531 12.425781l-56.570312 55.976563c-1.339844-2.046876-2.878907-3.992188-4.628907-5.808594-7.4375-7.726563-17.855469-12.15625-28.582031-12.15625h-79.796875c-15.054687 0-29.738281-1.953125-43.644531-5.800782-36.21875-10.023437-70.777344-2.785156-99.941406 20.929688-12.304688 10.007812-21.148438 20.929688-26.574219 28.648438-6.144531-4.269532-13.453125-6.511719-21.035157-6.382813-9.613281.164063-18.582031 4.066406-25.25 10.992187l-51.578124 53.542969c-3.808594 3.953125-3.730469 10.238281.183593 14.097657l41.476563 40.910156c3.941406 3.886718 10.292968 3.84375 14.183594-.097656 3.886718-3.945313 3.84375-10.292969-.097657-14.183594l-34.421875-33.949219 44.699219-46.40625c2.941406-3.054687 6.898437-4.777344 11.140625-4.847656 4.28125-.078125 8.253906 1.515625 11.300781 4.46875l79.753907 77.394531c3.039062 2.953125 4.75 6.910156 4.808593 11.148438.058594 4.238281-1.539062 8.242187-4.496093 11.28125l-43.925782 45.066406-11.304687-10.765625c-4.011719-3.820313-10.359375-3.664063-14.179688.347656-3.816406 4.011719-3.660156 10.359375.351563 14.175781l18.480468 17.601563c1.941407 1.847656 4.429688 2.765625 6.914063 2.765625 2.613281 0 5.21875-1.015625 7.183594-3.027344l50.84375-52.167969c6.703125-6.875 10.320312-15.953125 10.1875-25.554687-.0625-4.390625-.910157-8.648438-2.46875-12.617188l17.910156-2.085937c8.308594-.964844 16.761719-1.457031 25.128906-1.457031h121.414063c1.859375 0 3.742187-.078126 5.59375-.234376l11.636718-.96875c11.792969-.980468 23.160157-5.074218 32.875-11.828124 4.769532-3.320313 9.09375-7.246094 12.855469-11.671876l81.816407-96.257812c8.742187-10.285156 11.570312-24.117188 7.574218-37.007812zm-22.855468 24.015624-81.820313 96.257813c-2.640625 3.105469-5.675781 5.863281-9.027344 8.195313-6.820312 4.746093-14.804687 7.617187-23.082031 8.308593l-11.640625.96875c-1.296875.109375-2.621094.164063-3.925781.164063h-121.414063c-9.136719 0-18.371093.535156-27.445312 1.589844l-29 3.375-64.15625-61.863282c4.371093-6.476562 12.398437-16.914062 24.042969-26.378906 24.253906-19.722656 51.820312-25.496094 81.9375-17.164062 15.644531 4.332031 32.128906 6.527343 48.992187 6.527343h79.796875c5.304688 0 10.457031 2.191407 14.136719 6.011719 2.691406 2.792969 4.398437 6.21875 5.101562 9.808594-.011719.90625.101563 1.808594.335938 2.6875.265625 4.703125-1.144531 9.496094-4.277344 13.394531l-.308594.386719c-3.742187 4.664062-9.320312 7.339844-15.300781 7.339844h-69.46875c-5.539062 0-10.027344 4.488281-10.027344 10.027343 0 5.539063 4.488282 10.03125 10.027344 10.03125h69.46875c12.097656 0 23.375-5.414062 30.949219-14.855469l.308593-.382812c5.800782-7.226562 8.675782-15.96875 8.703126-24.695312l64.273437-63.601563c4.03125-4.027344 9.382813-6.375 15.074219-6.605469l3.660156-.148437c8.089844-.34375 15.390625 4.828125 17.785156 12.550781 1.953125 6.292969.570313 13.050781-3.699218 18.070312zm0 0"/><path d="m79.742188 316.789062c-14.972657 0-27.15625 12.183594-27.15625 27.15625 0 14.976563 12.183593 27.160157 27.15625 27.160157 14.976562 0 27.160156-12.183594 27.160156-27.160157 0-14.972656-12.183594-27.15625-27.160156-27.15625zm0 34.257813c-3.914063 0-7.101563-3.183594-7.101563-7.101563 0-3.914062 3.1875-7.097656 7.101563-7.097656 3.914062 0 7.101562 3.183594 7.101562 7.097656 0 3.917969-3.1875 7.101563-7.101562 7.101563zm0 0"/><path d="m238.230469 299.347656-.515625.121094c-5.390625 1.265625-8.738282 6.664062-7.46875 12.054688 1.082031 4.621093 5.203125 7.738281 9.753906 7.738281.757812 0 1.53125-.089844 2.300781-.269531l.519531-.121094c5.390626-1.265625 8.734376-6.664063 7.46875-12.054688-1.265624-5.390625-6.664062-8.730468-12.058593-7.46875zm0 0"/><path d="m78.453125 405.484375-.519531.121094c-5.390625 1.269531-8.734375 6.664062-7.46875 12.054687 1.085937 4.621094 5.203125 7.738282 9.753906 7.738282.761719 0 1.53125-.085938 2.304688-.265626l.515624-.121093c5.390626-1.265625 8.738282-6.664063 7.46875-12.054688-1.265624-5.394531-6.664062-8.734375-12.054687-7.472656zm0 0"/><path d="m293.511719 212.277344c58.527343 0 106.140625-47.613282 106.140625-106.136719 0-58.527344-47.613282-106.140625-106.140625-106.140625-24.003907 0-46.648438 7.816406-65.484375 22.605469-4.300782 3.375-8.375 7.113281-12.105469 11.113281-5.582031 5.976562-10.472656 12.597656-14.53125 19.671875-9.171875 15.984375-14.015625 34.226563-14.015625 52.75 0 58.523437 47.613281 106.136719 106.136719 106.136719zm-74.722657-148.90625c3.292969-5.742188 7.257813-11.113282 11.792969-15.964844 3.027344-3.25 6.335938-6.28125 9.828125-9.023438 15.273438-11.988281 33.636719-18.324218 53.101563-18.324218 47.464843 0 86.082031 38.613281 86.082031 86.082031 0 47.464844-38.617188 86.082031-86.082031 86.082031-47.464844 0-86.082031-38.617187-86.082031-86.082031 0-15.027344 3.925781-29.816406 11.359374-42.769531zm0 0"/><path d="m302.40625 140.464844c-4.042969 2.402344-9.296875 3.257812-12.859375 3.257812-6.761719 0-12.691406-7.96875-12.691406-17.050781 0-5.539063-4.488281-10.027344-10.027344-10.027344s-10.027344 4.488281-10.027344 10.027344c0 17.367187 10.582031 31.980469 24.824219 36.003906.324219 5.246094 4.667969 9.40625 9.996094 9.40625 5.472656 0 9.914062-4.386719 10.019531-9.835937 14.484375-3.757813 26.984375-14.542969 26.984375-33.390625 0-22.597657-23.074219-34.925781-34.925781-34.925781-.148438 0-14.871094-1.308594-14.871094-10.722657 0-14.460937 14.722656-14.867187 14.871094-14.867187 2.789062 0 6.179687 1.65625 8.851562 4.328125 1.285157 1.289062 1.421875 1.421875 1.421875 6.828125 0 5.539062 4.492188 10.007812 10.027344 10.007812 5.539062 0 10.03125-4.507812 10.03125-10.046875 0-6.410156 0-13.671875-7.296875-20.972656-4.386719-4.382813-9.644531-7.5-15.113281-9.058594-.304688-5.265625-4.65625-9.445312-10-9.445312-5.535156 0-10.027344 4.492187-10.027344 10.03125v.65625c-10.957031 4.070312-22.820312 13.804687-22.820312 32.539062 0 22.976563 23.882812 30.746094 34.855468 30.777344 3.011719.242187 14.9375 5.523437 14.9375 14.867187 0 5.5-1.898437 9.078126-6.160156 11.613282zm0 0"/></svg>