<svg height="682pt" viewBox="-21 -48 682.66663 682" width="682pt" xmlns="http://www.w3.org/2000/svg"><path d="m637.777344 266.386719c-6.359375-20.488281-25.757813-34.167969-47.203125-33.308594l-4.574219.1875c-13.417969.546875-26.039062 6.078125-35.492188 15.53125l-70.714843 69.972656c-1.675781-2.558593-3.597657-4.992187-5.785157-7.261719-9.296874-9.660156-22.320312-15.195312-35.726562-15.195312h-99.746094c-18.820312 0-37.171875-2.441406-54.554687-7.25-45.273438-12.53125-88.472657-3.484375-124.929688 26.160156-15.378906 12.511719-26.433593 26.164063-33.214843 35.8125-7.679688-5.339844-16.816407-8.140625-26.292969-7.980468-12.019531.207031-23.230469 5.082031-31.5625 13.742187l-64.472657 66.925781c-4.761718 4.941406-4.664062 12.796875.226563 17.621094l51.847656 51.140625c4.925781 4.855469 12.867188 4.804687 17.730469-.125 4.855469-4.929687 4.804688-12.863281-.125-17.726563l-43.027344-42.4375 55.875-58.007812c3.675782-3.816406 8.625-5.972656 13.925782-6.058594 5.351562-.097656 10.316406 1.894532 14.125 5.585938l99.691406 96.742187c3.800781 3.691407 5.9375 8.636719 6.011718 13.933594.074219 5.300781-1.921874 10.304687-5.621093 14.101563l-54.90625 56.335937-14.128907-13.457031c-5.015624-4.777344-12.949218-4.582032-17.726562.433594-4.769531 5.015624-4.574219 12.949218.441406 17.71875l23.097656 22.003906c2.429688 2.308594 5.539063 3.457031 8.644532 3.457031 3.265625 0 6.523437-1.269531 8.980468-3.785156l63.554688-65.210938c8.378906-8.59375 12.898438-19.941406 12.734375-31.941406-.078125-5.488281-1.140625-10.8125-3.085937-15.773437l22.386718-2.605469c10.386719-1.207031 20.953125-1.824219 31.410156-1.824219h151.769532c2.324218 0 4.675781-.097656 6.992187-.292969l14.542969-1.210937c14.742188-1.222656 28.949219-6.339844 41.09375-14.785156 5.960938-4.148438 11.367188-9.054688 16.070312-14.589844l102.269532-120.320313c10.929687-12.855469 14.464844-30.144531 9.46875-46.257812zm-28.570313 30.019531-102.273437 120.320312c-3.300782 3.882813-7.097656 7.328126-11.285156 10.242188-8.527344 5.933594-18.507813 9.523438-28.851563 10.386719l-14.550781 1.210937c-1.621094.136719-3.277344.207032-4.90625.207032h-151.769532c-11.421874 0-22.964843.667968-34.304687 1.984374l-36.25 4.21875-80.195313-77.328124c5.460938-8.09375 15.496094-21.140626 30.050782-32.972657 30.320312-24.652343 64.777344-31.871093 102.421875-21.453125 19.558593 5.414063 40.164062 8.15625 61.242187 8.15625h99.746094c6.628906 0 13.070312 2.742188 17.671875 7.515625 3.363281 3.492188 5.496094 7.773438 6.375 12.261719-.015625 1.132812.125 2.261719.417969 3.359375.332031 5.878906-1.429688 11.871094-5.34375 16.742187l-.386719.484376c-4.675781 5.828124-11.648437 9.175781-19.125 9.175781h-86.835937c-6.925782 0-12.535157 5.609375-12.535157 12.53125 0 6.925781 5.609375 12.539062 12.535157 12.539062h86.835937c15.121094 0 29.21875-6.765625 38.683594-18.566406l.386719-.480469c7.25-9.03125 10.84375-19.960937 10.878906-30.867187l80.34375-79.503907c5.039062-5.035156 11.726562-7.96875 18.839844-8.257812l4.578124-.183594c10.109376-.429687 19.238282 6.035156 22.230469 15.6875 2.441407 7.867188.710938 16.3125-4.625 22.589844zm0 0"/><path d="m99.679688 394.566406c-18.71875 0-33.945313 15.230469-33.945313 33.945313 0 18.722656 15.226563 33.953125 33.945313 33.953125s33.949218-15.230469 33.949218-33.953125c0-18.714844-15.230468-33.945313-33.949218-33.945313zm0 42.824219c-4.894532 0-8.878907-3.980469-8.878907-8.878906 0-4.890625 3.984375-8.871094 8.878907-8.871094 4.890624 0 8.875 3.980469 8.875 8.871094 0 4.898437-3.984376 8.878906-8.875 8.878906zm0 0"/><path d="m297.789062 372.765625-.644531.152344c-6.738281 1.582031-10.925781 8.332031-9.335937 15.070312 1.351562 5.773438 6.503906 9.671875 12.191406 9.671875.945312 0 1.914062-.113281 2.875-.339844l.648438-.148437c6.738281-1.582031 10.917968-8.332031 9.335937-15.070313-1.582031-6.738281-8.328125-10.910156-15.070313-9.335937zm0 0"/><path d="m98.066406 505.4375-.648437.152344c-6.738281 1.585937-10.917969 8.328125-9.335938 15.066406 1.355469 5.777344 6.503907 9.671875 12.191407 9.671875.953124 0 1.914062-.105469 2.882812-.332031l.644531-.148438c6.738281-1.582031 10.921875-8.332031 9.335938-15.070312-1.582031-6.742188-8.332031-10.917969-15.070313-9.339844zm0 0"/><path d="m366.890625 263.929688c73.15625 0 132.671875-59.515626 132.671875-132.671876s-59.515625-132.675781-132.671875-132.675781c-30.007813 0-58.3125 9.773438-81.855469 28.257813-5.378906 4.21875-10.46875 8.890625-15.132812 13.890625-6.976563 7.472656-13.089844 15.75-18.164063 24.589843-11.464843 19.980469-17.519531 42.785157-17.519531 65.9375 0 73.15625 59.515625 132.671876 132.671875 132.671876zm-93.40625-186.132813c4.117187-7.175781 9.074219-13.890625 14.742187-19.957031 3.785157-4.0625 7.921876-7.851563 12.285157-11.277344 19.09375-14.984375 42.046875-22.90625 66.378906-22.90625 59.328125 0 107.601563 48.265625 107.601563 107.601562 0 59.332032-48.273438 107.601563-107.601563 107.601563-59.332031 0-107.605469-48.269531-107.605469-107.601563 0-18.785156 4.910156-37.269531 14.199219-53.460937zm0 0"/><path d="m378.007812 174.164062c-5.054687 3.003907-11.621093 4.070313-16.074218 4.070313-8.453125 0-15.863282-9.960937-15.863282-21.3125 0-6.921875-5.613281-12.535156-12.535156-12.535156-6.925781 0-12.535156 5.613281-12.535156 12.535156 0 21.710937 13.226562 39.976563 31.03125 45.003906.40625 6.558594 5.835938 11.757813 12.496094 11.757813 6.839844 0 12.390625-5.480469 12.523437-12.292969 18.105469-4.699219 33.730469-18.179687 33.730469-41.738281 0-28.246094-28.84375-43.65625-43.65625-43.65625-.1875 0-18.589844-1.636719-18.589844-13.40625 0-18.074219 18.402344-18.582032 18.589844-18.582032 3.484375 0 7.722656 2.070313 11.0625 5.410157 1.605469 1.609375 1.777344 1.777343 1.777344 8.535156 0 6.921875 5.617187 12.507813 12.535156 12.507813 6.921875 0 12.539062-5.632813 12.539062-12.558594 0-8.011719 0-17.089844-9.121093-26.214844-5.484375-5.476562-12.054688-9.375-18.890625-11.320312-.382813-6.582032-5.820313-11.808594-12.5-11.808594-6.921875 0-12.535156 5.617187-12.535156 12.539062v.820313c-13.695313 5.089843-28.527344 17.253906-28.527344 40.671875 0 28.722656 29.855468 38.433594 43.570312 38.472656 3.765625.304688 18.671875 6.90625 18.671875 18.585938 0 6.875-2.371093 11.347656-7.699219 14.515624zm0 0"/></svg>