<?xml version="1.0" encoding="iso-8859-1"?>
<!-- Generator: Adobe Illustrator 21.0.0, SVG Export Plug-In . SVG Version: 6.00 Build 0)  -->
<svg version="1.1" id="Capa_1" xmlns="http://www.w3.org/2000/svg" xmlns:xlink="http://www.w3.org/1999/xlink" x="0px" y="0px"
	 viewBox="0 0 511.999 511.999" style="enable-background:new 0 0 511.999 511.999;" xml:space="preserve">
<path style="fill:#EDEBED;" d="M420.699,405.267H24.747C11.08,405.267,0,394.188,0,380.52V50.56
	c0-13.667,11.08-24.747,24.747-24.747h395.952c13.667,0,24.747,11.08,24.747,24.747v329.96
	C445.446,394.188,434.367,405.267,420.699,405.267z"/>
<path style="fill:#DBD9DC;" d="M16.498,380.52V27.22C6.908,30.629,0,39.801,0,50.56v329.96c0,13.667,11.08,24.747,24.747,24.747
	h395.952c10.759,0,19.822-6.908,23.232-16.498H24.747C20.191,388.769,16.498,385.076,16.498,380.52z"/>
<g>
	<path style="fill:#FFFFFF;" d="M420.699,388.769H24.747c-4.556,0-8.249-3.693-8.249-8.249V116.552c0-4.556,3.693-8.249,8.249-8.249
		h395.952c4.556,0,8.249,3.693,8.249,8.249V380.52C428.948,385.076,425.255,388.769,420.699,388.769z"/>
	<path style="fill:#FFFFFF;" d="M412.45,75.307H115.486c-4.56,0-8.249-3.694-8.249-8.249s3.689-8.249,8.249-8.249H412.45
		c4.56,0,8.249,3.694,8.249,8.249S417.01,75.307,412.45,75.307z"/>
</g>
<path style="fill:#8CB4EB;" d="M387.703,199.042H255.719c-4.556,0-8.249-3.693-8.249-8.249v-24.747c0-4.556,3.693-8.249,8.249-8.249
	h131.984c4.556,0,8.249,3.693,8.249,8.249v24.747C395.952,195.349,392.259,199.042,387.703,199.042z"/>
<path style="fill:#867E88;" d="M354.707,240.287h-98.988c-4.56,0-8.249-3.694-8.249-8.249s3.689-8.249,8.249-8.249h98.988
	c4.56,0,8.249,3.694,8.249,8.249S359.267,240.287,354.707,240.287z"/>
<path style="fill:#9C969E;" d="M313.462,273.283h-57.743c-4.56,0-8.249-3.694-8.249-8.249s3.689-8.249,8.249-8.249h57.743
	c4.56,0,8.249,3.694,8.249,8.249S318.022,273.283,313.462,273.283z"/>
<circle style="fill:#FF8087;" cx="32.996" cy="67.06" r="8.249"/>
<circle style="fill:#FFD164;" cx="57.743" cy="67.06" r="8.249"/>
<circle style="fill:#B4E6A0;" cx="82.49" cy="67.06" r="8.249"/>
<path style="fill:#C9C6CA;" d="M232.241,324.681l-40.61-16.921c-6.148-2.562-10.153-8.569-10.153-15.229v-27.497h-65.992v27.497
	c0,6.66-4.005,12.668-10.153,15.229l-40.61,16.921c-9.222,3.842-15.229,12.853-15.229,22.843v41.245H247.47v-41.245
	C247.47,337.534,241.463,328.523,232.241,324.681z"/>
<path style="fill:#B7B2B8;" d="M115.486,265.034v27.497c0,1.523-0.207,3.019-0.604,4.44c9.869,5.885,21.298,9.309,33.6,9.309
	c12.302,0,23.733-3.422,33.602-9.307c-0.397-1.421-0.606-2.918-0.606-4.441v-27.497L115.486,265.034z"/>
<path style="fill:#DBD9DC;" d="M148.482,166.046c-27.335,0-49.494,18.466-49.494,41.245v32.996
	c0,27.334,22.159,49.494,49.494,49.494s49.494-22.16,49.494-49.494v-32.996C197.976,184.512,175.817,166.046,148.482,166.046z"/>
<path style="fill:#C9C6CA;" d="M123.735,240.287v-41.245c0-13.373,7.672-25.224,19.51-32.76
	c-24.872,2.181-44.257,19.705-44.257,41.009v32.996c0,27.334,22.159,49.494,49.494,49.494c4.281,0,8.466-0.546,12.428-1.568
	C139.575,282.71,123.735,263.341,123.735,240.287z"/>
<path style="fill:#B7B2B8;" d="M247.469,372.272H98.988c-18.223,0-32.996-14.773-32.996-32.996v-15.124l-1.266,0.527
	c-9.224,3.842-15.232,12.853-15.232,22.845v41.245H247.47c0,0,0-7.386,0-16.497H247.469z"/>
<path style="fill:#A5CDFF;" d="M395.952,182.544H280.466c-9.112,0-16.498-7.386-16.498-16.498v-8.249h123.735
	c4.556,0,8.249,3.693,8.249,8.249V182.544z"/>
<path style="fill:#FFE17D;" d="M395.625,266.919L295.628,301.7c-3.606,1.254-5.859,4.797-5.501,8.598
	c2.35,25.007,16.949,116.198,106.352,174.549c2.737,1.786,6.394,1.786,9.131,0c89.403-58.351,104.002-149.542,106.352-174.549
	c0.357-3.801-1.896-7.344-5.501-8.598l-99.997-34.781C402.955,265.698,399.135,265.698,395.625,266.919z"/>
<path style="fill:#FFFFFF;" d="M392.57,407.04L392.57,407.04c-2.191,0-4.286-0.87-5.832-2.417l-33.89-33.894
	c-3.222-3.222-3.222-8.442,0-11.665c3.222-3.222,8.442-3.222,11.665,0l28.058,28.062l47.432-47.428
	c3.222-3.222,8.442-3.222,11.665,0s3.222,8.442,0,11.665l-53.264,53.26C396.856,406.169,394.762,407.04,392.57,407.04z"/>
<path style="fill:#FFD164;" d="M321.203,292.805l-25.574,8.895c-3.606,1.254-5.858,4.797-5.502,8.597
	c2.35,25.007,16.949,116.197,106.352,174.549c2.737,1.786,6.394,1.786,9.131,0c5.369-3.504,10.456-7.119,15.298-10.838
	C347.644,416.033,326.937,332.724,321.203,292.805z"/>
<g>
</g>
<g>
</g>
<g>
</g>
<g>
</g>
<g>
</g>
<g>
</g>
<g>
</g>
<g>
</g>
<g>
</g>
<g>
</g>
<g>
</g>
<g>
</g>
<g>
</g>
<g>
</g>
<g>
</g>
</svg>
