<?xml version="1.0" encoding="iso-8859-1"?>
<!-- Generator: Adobe Illustrator 19.0.0, SVG Export Plug-In . SVG Version: 6.00 Build 0)  -->
<svg version="1.1" id="Capa_1" xmlns="http://www.w3.org/2000/svg" xmlns:xlink="http://www.w3.org/1999/xlink" x="0px" y="0px"
	 viewBox="0 0 512.106 512.106" style="enable-background:new 0 0 512.106 512.106;" xml:space="preserve">
<g transform="translate(-1)">
	<g transform="translate(1 1)">
		<rect x="187.786" y="425.72" style="fill:#6A1B9A;" width="136.533" height="51.2"/>
		<rect x="187.786" y="425.72" style="fill:#9D27B0;" width="110.933" height="51.2"/>
		<path style="fill:#6A1B9A;" d="M503.52,365.986v29.44c1.219,20.121-14.022,37.457-34.133,38.827H42.72
			c-20.111-1.37-35.352-18.706-34.133-38.827v-29.44H503.52z"/>
		<path style="fill:#9D27B0;" d="M477.92,365.986v29.44c1.219,20.121-14.022,37.457-34.133,38.827H42.72
			c-20.111-1.37-35.352-18.706-34.133-38.827v-29.44H477.92z"/>
		<path style="fill:#00838F;" d="M503.52,46.413v319.573H8.586V46.413C7.368,26.292,22.608,8.956,42.72,7.586h426.667
			C489.497,8.956,504.738,26.292,503.52,46.413z"/>
		<path style="fill:#00BCD4;" d="M477.92,46.413v319.573H8.586V46.413C7.368,26.292,22.608,8.956,42.72,7.586h401.067
			C463.897,8.956,479.138,26.292,477.92,46.413z"/>
		<path style="fill:#FEC108;" d="M170.72,86.178v105.984c-0.088,1.807-1.605,3.211-3.413,3.157H71.733
			c-1.79,0.092-3.317-1.282-3.413-3.072V86.178l48.555-43.52c1.531-1.281,3.76-1.281,5.291,0L170.72,86.178z"/>
		<path style="fill:#FFEB3A;" d="M119.52,229.453v51.2l-42.667,25.6l-1.195,0.768c-4.832-7.944-7.372-17.07-7.339-26.368
			C68.32,252.376,91.243,229.453,119.52,229.453z"/>
		<path style="fill:#8BC34A;" d="M170.72,280.653c0.041,13.585-5.369,26.619-15.019,36.181l-36.181-36.181v-51.2
			C147.797,229.453,170.72,252.376,170.72,280.653z"/>
		<path style="fill:#E91E63;" d="M155.701,316.834c-11.127,11.157-26.778,16.558-42.418,14.641s-29.522-10.94-37.625-24.454
			l1.195-0.768l42.667-25.6L155.701,316.834z"/>
		<path style="fill:#FFEB3A;" d="M290.186,50.253h17.067c4.713,0,8.533,3.821,8.533,8.533v102.4h-34.133v-102.4
			C281.653,54.073,285.473,50.253,290.186,50.253z"/>
		<path style="fill:#E91E63;" d="M356.149,92.92h21.675c3.44,0,6.229,2.789,6.229,6.229v62.037H349.92V99.149
			C349.92,95.709,352.709,92.92,356.149,92.92z"/>
		<path style="fill:#8BC34A;" d="M423.11,118.52h24.277c2.719,0,4.924,2.204,4.924,4.924v37.743h-34.125v-37.743
			C418.186,120.724,420.391,118.52,423.11,118.52z"/>
		<path style="fill:#6A1B9A;" d="M392.586,493.986v8.533H119.52v-8.533c0-14.138,11.462-25.6,25.6-25.6h221.867
			C381.125,468.386,392.586,479.848,392.586,493.986z"/>
		<path style="fill:#9D27B0;" d="M366.986,493.986v8.533H119.52v-8.533c0-14.138,11.462-25.6,25.6-25.6h196.267
			C355.525,468.386,366.986,479.848,366.986,493.986z"/>
	</g>
	<g>
		<path d="M57.945,108.81l62.575-56.013l62.575,56.013c2.266,2.067,5.468,2.759,8.385,1.812c2.918-0.947,5.102-3.387,5.722-6.392
			c0.62-3.004-0.42-6.11-2.724-8.135l-65.792-58.88c-4.761-4.067-11.789-4.012-16.486,0.128L77.853,68.081v-4.028
			c0-4.713-3.821-8.533-8.533-8.533c-4.713,0-8.533,3.821-8.533,8.533v19.311L46.561,96.096c-3.459,3.155-3.73,8.508-0.607,11.997
			C49.077,111.58,54.428,111.901,57.945,108.81z"/>
		<path d="M171.72,119.52c-4.713,0-8.533,3.821-8.533,8.533v59.733H77.853v-59.733c0-4.713-3.821-8.533-8.533-8.533
			c-4.713,0-8.533,3.821-8.533,8.533v65.152c0.084,6.515,5.432,11.729,11.947,11.648h95.573c6.519,0.066,11.862-5.155,11.947-11.674
			v-65.126C180.253,123.34,176.432,119.52,171.72,119.52z"/>
		<path d="M120.52,221.92c-32.99,0-59.733,26.744-59.733,59.733s26.744,59.733,59.733,59.733s59.733-26.744,59.733-59.733
			C180.215,248.679,153.494,221.957,120.52,221.92z M111.986,239.84v36.975L80.413,295.75c-1.653-4.518-2.519-9.286-2.56-14.097
			C77.879,261.385,92.134,243.922,111.986,239.84z M89.202,310.385l29.995-17.997l24.815,24.815
			c-17.435,11.632-40.761,8.726-54.81-6.827V310.385z M156.078,305.137l-27.025-27.017V239.84
			c13.892,2.815,25.474,12.357,30.895,25.454C165.368,278.391,163.918,293.327,156.078,305.137z"/>
		<path d="M265.586,170.72h196.267c4.713,0,8.533-3.821,8.533-8.533s-3.82-8.533-8.533-8.533v-29.21
			c-0.005-7.43-6.027-13.452-13.457-13.457H424.11c-7.43,0.005-13.452,6.027-13.457,13.457v29.21h-17.067v-53.504
			c-0.009-8.149-6.613-14.753-14.763-14.763h-21.675C349,85.396,342.396,92,342.386,100.149v53.504H325.32V59.786
			c0-9.426-7.641-17.067-17.067-17.067h-17.067c-9.426,0-17.067,7.641-17.067,17.067v93.867h-8.533
			c-4.713,0-8.533-3.821-8.533-8.533V42.72c0-4.713-3.821-8.533-8.533-8.533c-4.713,0-8.533,3.821-8.533,8.533v102.4
			C239.986,159.258,251.448,170.72,265.586,170.72z M427.72,128.053h17.067v25.6H427.72V128.053z M359.453,102.453h17.067v51.2
			h-17.067V102.453z M291.186,59.786h17.067v93.867h-17.067V59.786z"/>
		<path d="M265.586,341.386h196.267c4.713,0,8.533-3.82,8.533-8.533s-3.82-8.533-8.533-8.533H265.586
			c-4.713,0-8.533-3.82-8.533-8.533v-13.534l28.1-28.1c3.371-3.236,8.695-3.236,12.066,0l10.001,10.001
			c9.997,9.994,26.202,9.994,36.198,0l35.601-35.601c3.371-3.236,8.695-3.236,12.066,0l10.001,10.01
			c10.008,9.966,26.19,9.966,36.198,0l30.601-30.601c3.234-3.348,3.188-8.671-0.104-11.962c-3.292-3.292-8.614-3.338-11.962-0.104
			l-30.601,30.592c-3.332,3.331-8.734,3.331-12.066,0l-10.001-10.001c-10.13-9.668-26.069-9.668-36.198,0l-35.601,35.601
			c-3.332,3.331-8.734,3.331-12.066,0l-9.993-10.001c-10.132-9.669-26.075-9.669-36.207,0l-16.034,16.034v-64.734
			c0-4.713-3.821-8.533-8.533-8.533c-4.713,0-8.533,3.821-8.533,8.533v102.4C239.986,329.925,251.448,341.386,265.586,341.386z"/>
		<path d="M470.386,0.053H43.72C18.916,1.431-0.134,22.557,1.053,47.37v349.09c-1.191,24.817,17.859,45.948,42.667,47.326h136.533
			v17.067H146.12c-18.851,0-34.133,15.282-34.133,34.133v8.533c0,4.713,3.821,8.533,8.533,8.533h273.067
			c4.713,0,8.533-3.82,8.533-8.533v-8.533c0-18.851-15.282-34.133-34.133-34.133h-34.133v-17.067h136.533
			c24.807-1.378,43.858-22.509,42.667-47.326V47.37C514.24,22.557,495.19,1.431,470.386,0.053z M43.72,17.12h426.667
			c15.36,1.406,26.754,14.87,25.6,30.251v311.083H18.12V47.37C16.965,31.989,28.36,18.525,43.72,17.12z M385.053,494.986h-256
			c0-9.426,7.641-17.067,17.067-17.067h221.867C377.412,477.92,385.053,485.561,385.053,494.986z M316.786,460.853H197.32v-17.067
			h119.467V460.853z M470.386,426.72H43.72c-15.361-1.41-26.754-14.877-25.6-30.259V375.52h477.867v20.941
			C497.141,411.843,485.748,425.31,470.386,426.72z"/>
	</g>
</g>
<g>
</g>
<g>
</g>
<g>
</g>
<g>
</g>
<g>
</g>
<g>
</g>
<g>
</g>
<g>
</g>
<g>
</g>
<g>
</g>
<g>
</g>
<g>
</g>
<g>
</g>
<g>
</g>
<g>
</g>
</svg>
