<svg xmlns="http://www.w3.org/2000/svg" xmlns:xlink="http://www.w3.org/1999/xlink" viewBox="0 0 750 500"><defs><style>.cls-1,.cls-5{fill:#fff;}.cls-11,.cls-2{fill:#fb8122;}.cls-10,.cls-11,.cls-12,.cls-13,.cls-14,.cls-15,.cls-16,.cls-17,.cls-18,.cls-19,.cls-2,.cls-20,.cls-21,.cls-22,.cls-23,.cls-24,.cls-25,.cls-26,.cls-3,.cls-4,.cls-5,.cls-8,.cls-9{fill-rule:evenodd;}.cls-2{opacity:0.31;}.cls-3,.cls-6{fill:#e3b19b;}.cls-4,.cls-7{fill:#fce4d6;}.cls-8{fill:url(#GradientFill_1);}.cls-9{fill:#f1d3c4;}.cls-10{fill:#fdf1e8;}.cls-12{fill:#1a1a18;}.cls-13{fill:#302d28;}.cls-14{fill:#894c2e;}.cls-15{fill:#362a25;}.cls-16{fill:#aa5935;}.cls-17{fill:#011111;}.cls-18{fill:#8e6b56;}.cls-19{fill:#c95302;}.cls-20{fill:#f5ac83;}.cls-21{fill:#b56b41;}.cls-22{fill:#ed7862;}.cls-23{fill:#d58750;}.cls-24{fill:#f18a00;}.cls-25{fill:#d64c47;}.cls-26{fill:#8b472d;}</style><linearGradient id="GradientFill_1" x1="283.76" y1="157.11" x2="283.76" y2="64.54" gradientUnits="userSpaceOnUse"><stop offset="0" stop-color="#fdede2"/><stop offset="1" stop-color="#fff"/></linearGradient></defs><title>help illustaration</title><g id="BACKGROUND"><rect class="cls-1" x="125" width="500" height="500"/><rect class="cls-1" width="750" height="500"/></g><g id="OBJECTS"><path class="cls-2" d="M577,333.7h59.5a58.3,58.3,0,0,1,58.1,58.2h0A58.2,58.2,0,0,1,636.5,450H133.8a94.4,94.4,0,0,1-94.2-94.2h0c0-51.8,42.4-94.1,94.2-94.1h0a40,40,0,0,0,39.8-39.9h0A39.9,39.9,0,0,0,133.8,182H85.9a41.5,41.5,0,0,1-41.4-41.4h0A41.5,41.5,0,0,1,85.9,99.2h88.3a16.2,16.2,0,0,0,16.1-16.1h0a16.2,16.2,0,0,0-16.1-16.2H150.4a11.1,11.1,0,0,1-11.1-11.1h0a11.1,11.1,0,0,1,11.1-11.1h55.5c14.8,0,24.1,17.4,61.4,17.4H398.2a14.6,14.6,0,0,1,14.5,14.6h0a14.6,14.6,0,0,1-14.5,14.5h-17a21.1,21.1,0,0,0-21,21h0a21.1,21.1,0,0,0,21,21h28.2c56.6,0,64.6,14.8,74.6,44.3s61.4,31.8,61.4,31.8h35.3A31.8,31.8,0,0,1,612.4,241h0a31.8,31.8,0,0,1-31.7,31.7H577a30.6,30.6,0,0,0-30.5,30.5h0A30.6,30.6,0,0,0,577,333.7ZM119.2,66.9a11.1,11.1,0,1,0-11.1-11.1A11.1,11.1,0,0,0,119.2,66.9Z"/><path class="cls-3" d="M360.9,117.4H325.6V240.1H442.2V135.7c-8.7-1.6-19.4-2.5-32.8-2.5H381.2A21,21,0,0,1,360.9,117.4Z"/><path class="cls-4" d="M360.5,115.6H322.9V238H439.4V135.3a179.3,179.3,0,0,0-30-2.1H381.2A21,21,0,0,1,360.5,115.6Z"/><path class="cls-5" d="M429.6,134v94.1H332.7V125.4h32.2a21,21,0,0,0,16.3,7.8h28.2C416.9,133.2,423.6,133.5,429.6,134Z"/><rect class="cls-6" x="183.9" y="117.4" width="116.6" height="95.03"/><rect class="cls-7" x="181.1" y="115.6" width="116.6" height="95.03"/><rect class="cls-1" x="191" y="125.4" width="96.8" height="75.33"/><path class="cls-8" d="M172.5,232.4a37.2,37.2,0,0,0,1.5-10.6h0a39.2,39.2,0,0,0-2.5-13.7l68.7-115h72.6L396,232.4Z"/><polygon class="cls-3" points="316.8 93.1 235.6 93.1 276.2 69.2 316.8 93.1"/><path class="cls-3" d="M235.9,90.7h80.5a2.4,2.4,0,0,1,2.4,2.4h0a2.3,2.3,0,0,1-2.4,2.3H235.9a2.3,2.3,0,0,1-2.3-2.3h0A2.3,2.3,0,0,1,235.9,90.7Z"/><rect class="cls-6" x="274.3" y="62.1" width="3.8" height="11.74"/><path class="cls-5" d="M276.2,91.3c20.9,0,37.9,1.8,37.9,4.1s-17,4.2-37.9,4.2-37.9-1.9-37.9-4.2S255.2,91.3,276.2,91.3Z"/><path class="cls-3" d="M149.9,128.7a1.1,1.1,0,0,1,1.1-1.1,1.1,1.1,0,0,1,1.2,1.1v2.7h2.6a1.1,1.1,0,1,1,0,2.2h-2.6v2.7a1.1,1.1,0,0,1-1.2,1.1,1.1,1.1,0,0,1-1.1-1.1v-2.7h-2.6a1.1,1.1,0,1,1,0-2.2h2.6Z"/><path class="cls-3" d="M118.3,149Zm-3.4-13.1a6.6,6.6,0,0,0-9.3,0,6.8,6.8,0,0,0,0,9.4,6.6,6.6,0,0,0,9.3,0,6.8,6.8,0,0,0,0-9.4Zm-1.4-6.5a11.9,11.9,0,0,1,2.6,1.1,9.2,9.2,0,0,1,2.2,1.7h.5l3.1-1.8h.6l.4.4h0l2.2,3.7a1.3,1.3,0,0,1,.1.6,1,1,0,0,1-.4.5h0l-3.1,1.7a.4.4,0,0,0-.1.5h0a5.9,5.9,0,0,1,.2,1.4,6.1,6.1,0,0,1,.1,1.4,6.6,6.6,0,0,1-.1,1.4,5.9,5.9,0,0,1-.2,1.4.4.4,0,0,0,.2.5l3,1.7h0a1,1,0,0,1,.4.5,1.3,1.3,0,0,1-.1.6l-2.2,3.7h0l-.4.4h-.6l-3.1-1.8c-.1-.1-.3,0-.5.1a12.8,12.8,0,0,1-2.2,1.7,11.9,11.9,0,0,1-2.6,1.1c-.2,0-.3.2-.3.4v3.5a.9.9,0,0,1-.3.6l-.5.2h-4.3l-.6-.2a1.4,1.4,0,0,1-.2-.6v-3.5c0-.2-.1-.4-.3-.4a11.9,11.9,0,0,1-2.6-1.1,12.8,12.8,0,0,1-2.2-1.7c-.2-.2-.4-.2-.5-.1l-3.1,1.8H98l-.4-.4h0l-2.2-3.7h0a1.3,1.3,0,0,1-.1-.6,1,1,0,0,1,.4-.5l3-1.8c.2,0,.3-.2.2-.4h0a5.9,5.9,0,0,1-.2-1.4,6.6,6.6,0,0,1-.1-1.4,6.1,6.1,0,0,1,.1-1.4,5.9,5.9,0,0,1,.2-1.4.4.4,0,0,0-.2-.5l-3-1.7a1,1,0,0,1-.4-.5,1.3,1.3,0,0,1,.1-.6h0l2.2-3.7h0a.8.8,0,0,1,.4-.4h.6l3.1,1.8c.1.1.3,0,.5-.1a9.2,9.2,0,0,1,2.2-1.7,11.9,11.9,0,0,1,2.6-1.1c.2-.1.3-.2.3-.4v-3.5a1.4,1.4,0,0,1,.2-.6l.6-.2h4.3l.5.2a.9.9,0,0,1,.3.6V129C113.2,129.2,113.3,129.4,113.5,129.4Z"/><path class="cls-3" d="M617.7,310.3Zm-3.4-13a6.5,6.5,0,0,0-9.4,0,6.9,6.9,0,0,0-1.9,4.6,7.1,7.1,0,0,0,1.9,4.7,6.6,6.6,0,0,0,11.3-4.7,6.4,6.4,0,0,0-1.9-4.6Zm-1.5-6.6a15.6,15.6,0,0,1,2.6,1.1,13.7,13.7,0,0,1,2.3,1.7c.1.2.3.2.5.1l3-1.8h.1a.4.4,0,0,1,.5,0,.5.5,0,0,1,.5.3h0l2.2,3.8a.4.4,0,0,1,0,.5.5.5,0,0,1-.3.5h0l-3.1,1.8a.5.5,0,0,0-.2.4h0l.3,1.4c0,.5.1.9.1,1.4s-.1,1-.1,1.4l-.3,1.4a.8.8,0,0,0,.2.5l3.1,1.7h0c.2.1.3.2.3.4a.6.6,0,0,1,0,.6l-2.2,3.7h0a1,1,0,0,1-.5.4h-.6l-3-1.7a.4.4,0,0,0-.5,0,9.8,9.8,0,0,1-2.3,1.7,7.6,7.6,0,0,1-2.6,1.1c-.1.1-.3.2-.3.4V317c0,.3,0,.4-.2.6l-.5.2h-4.4l-.5-.2a1.1,1.1,0,0,1-.2-.6v-3.5c0-.2-.1-.3-.3-.4a8.5,8.5,0,0,1-2.6-1.1,12.4,12.4,0,0,1-2.3-1.7.4.4,0,0,0-.5,0l-3,1.7h-.6a1,1,0,0,1-.5-.4h0l-2.1-3.7h0a.7.7,0,0,1-.1-.6c0-.2.2-.3.3-.4l3.1-1.8c.2-.1.2-.3.2-.5h0l-.3-1.4v-2.8l.3-1.4c0-.2,0-.4-.2-.4l-3.1-1.8a.9.9,0,0,1-.3-.5.4.4,0,0,1,.1-.5h0l2.1-3.7h0a.5.5,0,0,1,.5-.3.6.6,0,0,1,.6,0h0l3,1.8c.2.1.4.1.5-.1l2.3-1.7,2.6-1.1c.2,0,.3-.2.3-.4v-3.5a.8.8,0,0,1,.2-.5.5.5,0,0,1,.5-.3h4.4a.5.5,0,0,1,.5.3c.2.1.2.3.2.5v3.5A.4.4,0,0,0,612.8,290.7Z"/><path class="cls-3" d="M222.1,68.8a1.1,1.1,0,0,1,1.2-1.1,1.1,1.1,0,0,1,1.1,1.1v2.6h2.7a1.2,1.2,0,0,1,1.1,1.2,1.1,1.1,0,0,1-1.1,1.1h-2.7v2.7a1.1,1.1,0,0,1-1.1,1.1,1.1,1.1,0,0,1-1.2-1.1V73.7h-2.6a1.1,1.1,0,0,1-1.2-1.1,1.2,1.2,0,0,1,1.2-1.2h2.6Z"/><path class="cls-3" d="M351.2,41.1a1.1,1.1,0,0,1,1.1-1.1,1.1,1.1,0,0,1,1.2,1.1v2.7h2.6a1.2,1.2,0,0,1,1.2,1.1,1.3,1.3,0,0,1-1.2,1.2h-2.6v2.6a1.1,1.1,0,0,1-1.2,1.1,1.1,1.1,0,0,1-1.1-1.1V46.1h-2.7a1.2,1.2,0,0,1-1.1-1.2,1.1,1.1,0,0,1,1.1-1.1h2.7Z"/><path class="cls-3" d="M521.8,181a1.1,1.1,0,1,1,2.2,0v2.6h2.7a1.1,1.1,0,0,1,1.1,1.1,1.1,1.1,0,0,1-1.1,1.2H524v2.6a1.1,1.1,0,1,1-2.2,0v-2.6h-2.7a1.1,1.1,0,0,1-1.1-1.2,1.1,1.1,0,0,1,1.1-1.1h2.7Z"/><path class="cls-3" d="M693.8,320.8a1.2,1.2,0,0,1,1.2-1.2,1.2,1.2,0,0,1,1.1,1.2v2.6h2.7a1.1,1.1,0,0,1,1.1,1.2,1.1,1.1,0,0,1-1.1,1.1h-2.7v2.7a1.1,1.1,0,0,1-1.1,1.1,1.1,1.1,0,0,1-1.2-1.1v-2.7h-2.6a1.1,1.1,0,0,1-1.1-1.1,1.1,1.1,0,0,1,1.1-1.2h2.6Z"/><path class="cls-3" d="M632.4,406.8a1.1,1.1,0,1,1,2.2,0v2.7h2.7a1.1,1.1,0,0,1,0,2.2h-2.7v2.7a1.1,1.1,0,1,1-2.2,0v-2.7h-2.7a1.1,1.1,0,0,1,0-2.2h2.7Z"/><path class="cls-3" d="M93.1,394.5a1.1,1.1,0,1,1,2.2,0v2.7H98a1.1,1.1,0,0,1,0,2.2H95.3v2.7a1.1,1.1,0,0,1-2.2,0v-2.7H90.4a1.1,1.1,0,1,1,0-2.2h2.7Z"/><path class="cls-3" d="M62.3,245.5a1.1,1.1,0,0,1,1.2-1.1,1.1,1.1,0,0,1,1.1,1.1v2.6h2.7a1.2,1.2,0,0,1,1.1,1.2,1.1,1.1,0,0,1-1.1,1.1H64.6v2.7a1.1,1.1,0,0,1-1.1,1.1,1.1,1.1,0,0,1-1.2-1.1v-2.7H59.7a1.2,1.2,0,0,1-1.2-1.1,1.3,1.3,0,0,1,1.2-1.2h2.6Z"/><path class="cls-3" d="M92.8,83.4a1.1,1.1,0,0,1,1.1-1.1,1.1,1.1,0,0,1,1.2,1.1v2.7h2.6a1.1,1.1,0,1,1,0,2.2H95.1V91a1.1,1.1,0,0,1-1.2,1.1A1.1,1.1,0,0,1,92.8,91V88.3H90.2a1.1,1.1,0,1,1,0-2.2h2.6Z"/><path class="cls-3" d="M420.8,111.1a1.1,1.1,0,0,1,2.2,0v2.6h2.7a1.2,1.2,0,0,1,1.1,1.2,1.1,1.1,0,0,1-1.1,1.1H423v2.7a1.1,1.1,0,0,1-2.2,0V116h-2.7a1.1,1.1,0,0,1-1.1-1.1,1.2,1.2,0,0,1,1.1-1.2h2.7Z"/><polygon class="cls-9" points="327.3 117.4 325.6 117.4 325.6 232.4 396 232.4 327.3 117.4"/><polygon class="cls-10" points="326.2 115.6 322.9 115.6 322.9 232.4 396 232.4 326.2 115.6"/><polygon class="cls-5" points="393.4 228.1 332.7 228.1 332.7 126.5 393.4 228.1"/><polygon class="cls-9" points="300.4 117.4 225.6 117.4 183.9 187.3 183.9 212.4 300.4 212.4 300.4 117.4"/><polygon class="cls-10" points="297.7 115.6 226.7 115.6 181.1 191.9 181.1 210.6 297.7 210.6 297.7 115.6"/><polygon class="cls-5" points="287.8 125.4 287.8 200.8 191 200.8 191 175.4 220.8 125.4 287.8 125.4"/><path class="cls-11" d="M299.1,107.3h42.1a5.5,5.5,0,0,1,5.5,5.5V152a.5.5,0,0,1-.4.5c-.2.1-.5.1-.6-.1l-9.5-9.5H299.1a5.5,5.5,0,0,1-5.5-5.5V112.8A5.5,5.5,0,0,1,299.1,107.3Z"/><path class="cls-5" d="M307.8,128.2a3.1,3.1,0,1,0-3.1-3.1A3.1,3.1,0,0,0,307.8,128.2Z"/><path class="cls-5" d="M320.1,128.2a3.1,3.1,0,1,0-3-3.1A3.1,3.1,0,0,0,320.1,128.2Z"/><path class="cls-5" d="M332.5,128.2a3.1,3.1,0,1,0,0-6.2,3.1,3.1,0,0,0,0,6.2Z"/><path class="cls-12" d="M374.4,217.8a18.1,18.1,0,0,1,.8,9c-.5,2.9-18,50.5-19.1,53.5s-6.4,8.4-11.7,9.3c-2.2.4-17.5,3.3-24.2,4.3s-7.9-4.9-12.2-8.3c6.5-1.6,31.9-11.7,33.1-12s2.5-1.1,3.2-3.6,6.4-27.4,6.4-27.4,3.8-14.5,7.6-17S367.1,218,374.4,217.8Z"/><path class="cls-12" d="M357.1,315.5l-2.5,21.3s4.9,66.9,6.2,78.5c.7,6.7,2.1,24.7,3.2,38.8h23l.9-131.2Z"/><path class="cls-13" d="M371.5,334l-1.2,7.5,4,112.6h26.3c2-18.8,5.1-46.6,6.7-57.7,2.5-17.4,3.3-41.6,3.3-47.4s-6.7-14.2-8.9-14.8S371.5,334,371.5,334Z"/><path class="cls-4" d="M384.4,211.4l-13,9.3s-9.4,36.5-9.4,38.2-3.6,21.8-3.6,21.8,13.1,5.2,14.9.2,22.9-40.7,23.9-46.3-1.5-18.8-2.7-20.3S384.4,211.4,384.4,211.4Z"/><polygon class="cls-14" points="379.7 217.2 379 213.1 380 210.7 381.8 203.5 406.2 188.6 396.1 214.3 379.7 217.2"/><path class="cls-5" d="M382.1,217.2l2.4,2c.4.5,5.2,10.8,5.9,11.7l11.3-12.7s-.7-7.6-.9-7.9a16.9,16.9,0,0,0-2.5-2.3C397.4,211.4,388.3,213.4,382.1,217.2Z"/><path class="cls-12" d="M374.7,217.2c-5.5,1.5-15.9,7.5-18.6,13.5-6.1,13.7.2,28.9.2,56.3,0,3.5-7.5,54.7-7.6,55.4a1.4,1.4,0,0,0,1.4,1.6c1,0,17.6-29.8,18.5-32.3s-.9-44-.9-44l1.7-41.9Z"/><path class="cls-13" d="M405.9,222.5s11.3,3.8,12,4.9S407,301,406.8,303.7s8.7,42.5,9,43.5a1.6,1.6,0,0,1-.2,1c-.3.7-1.1,1-1.4,1.3s-34.2-6.8-37.5-8.9-10.5-34.4-10.5-38.7,1.5-19.2,1.5-19.2l21.4-39.5S395.6,223.6,405.9,222.5Z"/><path class="cls-13" d="M376.2,215.3c-4.4,3-11,10-15.9,14.7a13.8,13.8,0,0,1,5.1,2.3c.4.5-5,2-5.6,2.2s8.3,50.4,8.3,50.4,2.5-55.9,3.8-59.2a68.4,68.4,0,0,1,5-8.6Z"/><path class="cls-12" d="M401.8,217.1c-11.6,15.2-29.8,49.3-34.6,66.8l34.1-39.6-9.8-5.4,12.2.6c.7,0,2.8-16.2,2.9-16.7S401.8,217.1,401.8,217.1Z"/><path class="cls-5" d="M380.6,209a25.7,25.7,0,0,1-2.9,3c-.6.4-5.3,12.8-5.8,13.7s7.9-7.8,8.4-8,1.2.2,1.2.2v-.6Z"/><path class="cls-14" d="M370.9,173.4a6.5,6.5,0,0,1,5.6,7,5.9,5.9,0,0,1-6.4,5.8,6.5,6.5,0,0,1-5.5-7A5.8,5.8,0,0,1,370.9,173.4Z"/><path class="cls-12" d="M367.7,166c-2.4,9.5,1.2,16.3,3.4,20.3s3.7-20.5,3.7-20.5Z"/><path class="cls-14" d="M411.7,176.1c3.2.3,4.9,3.4,3.6,7s-4.7,6.1-8,5.7-4.8-3.4-3.6-7S408.5,175.7,411.7,176.1Z"/><path class="cls-14" d="M392.1,143.1h0c10.7,3.7,21.1,12.1,19.1,23.9l-3.4,20.3a24.5,24.5,0,0,1-26.1,20.4c-11.3-1-13.5-12.9-12.7-25l1.2-19.9C370.9,150.8,380.8,141.9,392.1,143.1Z"/><path class="cls-14" d="M400.3,145.8h.1A22.9,22.9,0,0,1,411.2,167l-3.4,19.9c-2.7,15.8-18.6,24.7-28.6,19.4,6,1.3,10.5.4,14-1.3,8.9-4.4,11.1-16.1,11.6-24.8,1.1-18-16.1-5.7-35-9.1-.7-.1.9-6,.3-6.1v-2.2a21.4,21.4,0,0,1,1.1-5.6c8.4-4.6,20.1-10.5,25.4-11.1l3.4-.4Z"/><path class="cls-15" d="M404.3,167.7l-.5,10.1c-.2,4-.2,4.9,1.3,6.6,0,0,1.1,5.6,2.7,6.8,0,0,.2-10.1,2.1-14.3l.2-16.7a9.9,9.9,0,0,1-5.8,5.2A17.6,17.6,0,0,1,404.3,167.7Z"/><path class="cls-15" d="M369.7,171.7s-4.5-4-5.7-8.4-4.2-21.6.4-19.7c10.5,4.2,43.9-14.4,45.9,8.9,0,0,1.5-1.6,2.7-1s-.6,3.2-.6,3.2,4.1,3.4,4.6,5.9-2.2,9.3-4.6,14.8c-1,2.4-4.9,14.1-4.8,15.1l-1.3-22.9-6.8-10.4L379.3,155l-9.2,9.7Z"/><path class="cls-15" d="M408.6,173.1s-5.7-1.8-5.5-7.5c-1.9,3-6.6,3.3-3.9-1.5a39.7,39.7,0,0,1-30,5s-3-16.7.3-18.2,26.6,1.2,29,2.3,15,8.8,15,8.8l-4.9,11.1Zm-43.1-31.5a.4.4,0,0,1,0-.5h.5s4.8,5.3,13.9,3.8c.2,0,.4.1.4.3s-.1.4-.3.4c-9.4,1.5-14.5-4-14.5-4Zm44.3,13.1s2.6-7.1-2.8-15.4a.2.2,0,0,0-.4-.1c-.2.1-.2.3-.1.5,5.1,8,2.7,14.8,2.7,14.8s0,.4.2.4S409.8,154.9,409.8,154.7Z"/><path class="cls-13" d="M414.7,225.4a18.7,18.7,0,0,1,6.6,6.2c1.6,2.5,20.7,49.4,21.9,52.4s.9,10.5-2.4,14.8c-1.4,1.7-10.8,14.2-15.1,19.5s-9.1,1.7-14.6,2c3.8-5.6,15.8-30.1,16.4-31.2s1.2-2.5,0-4.8-13.7-24.5-13.7-24.5S406.6,233.2,414.7,225.4Z"/><path class="cls-16" d="M313.5,284.5a8.8,8.8,0,0,1-3.9-1.5,21.4,21.4,0,0,0-6.5-3.8c-3.3-1.1-3,.5-1.5,1.9a36.4,36.4,0,0,1,3.2,3.6s-6.5,1.9-9.3,2.4-3.7,2.4-2.3,3.2,3.4-.1,3.7,0-2.1.7-2.1.9a1.3,1.3,0,0,0,.9,1.7,4,4,0,0,0,2.7-.2,5.6,5.6,0,0,0-1.7,1.3,1.1,1.1,0,0,0,.3,1.2c.9.7,4.1,0,4.1,0a4.2,4.2,0,0,0-1.5,1.2c-.3.6.1,1.3.5,1.3a20.3,20.3,0,0,0,4.7-.7,40.8,40.8,0,0,0,9-2.8c1.7-1,2.8-1.7,3.9-1.7S319.4,285.2,313.5,284.5Z"/><path class="cls-16" d="M312.8,284.3c2.7,3,3,4.7,3.1,6.1s-.5,1.2-1.4,2a28,28,0,0,1-9.5,4,18,18,0,0,0-4.1,1.3l3.9-.7a40.8,40.8,0,0,0,9-2.8l1.8-1a4.7,4.7,0,0,1,2.1-.7c.5-.1,1.7-7.3-4.2-8Z"/><path class="cls-17" d="M437.4,333.2a6.3,6.3,0,0,0-6.8-5.9,6.4,6.4,0,0,0-6,6.8c.9,13.5,2.4,28.6,4.6,45.3H312.9c2.3-16.6,4.2-31.6,5.6-45.1a6.3,6.3,0,0,0-5.7-7,6.4,6.4,0,0,0-7,5.7c-2.9,26.6-7.2,59.1-13.7,98.5-1.2,7.3-2.5,14.9-3.9,22.6h13c1.2-7,2.4-13.9,3.5-20.5,2.4-14.8,4.6-28.5,6.4-41.4H431c1.8,12.9,4.1,26.7,6.8,41.5q1.8,9.9,3.9,20.4h13c-1.5-7.8-3-15.4-4.3-22.7-3.1-16.5-5.5-31.8-7.5-46,0-.3-.1-.6-.1-.9C440.2,365.4,438.4,348.4,437.4,333.2Z"/><path class="cls-17" d="M44.2,326.9H442.3c2.6,0,4.9,2.9,4.9,6.4h0c0,3.6-2.3,6.5-4.9,6.5H41A110.5,110.5,0,0,1,44.2,326.9Z"/><path class="cls-5" d="M48.1,316.8H452.7c3.4,0,6.2,3.7,6.2,8.3h0c0,4.5-2.8,8.2-6.2,8.2H42.4A94.6,94.6,0,0,1,48.1,316.8Z"/><path class="cls-2" d="M360,316.8h13v16.5H360V316.8Zm74,0h7.3v16.5H434V316.8Zm-25.5,0h14.6v16.5H408.5V316.8Zm-14.9,0H397v16.5h-3.4V316.8Zm-13.9,0h6.8v16.5h-6.8Z"/><path class="cls-2" d="M47,319.5H159.8c2,0,3.7,2.2,3.7,4.9h0c0,2.7-1.7,4.9-3.7,4.9H43.5A88,88,0,0,1,47,319.5Z"/><path class="cls-18" d="M118,269.7s-6.7,10.6-7.4,16.1,19.5,24.2,24.3,30.5-1.3,8.4-3.1,8S96.7,297.8,94.6,294c-5.2-9.3,15.3-55.8,19.3-57.8C120.3,232.9,118,269.7,118,269.7Z"/><path class="cls-12" d="M162.8,369.7l2.9,8.2s-7.6,46.5-12,76.2H129.6c-5.7-26.6-16.1-72.4-8.3-91.3C132.2,336.6,162.8,369.7,162.8,369.7Z"/><path class="cls-13" d="M186.3,361.7l-1.2,7.7s1.6,56.2,2.3,84.7H164.1c-8.1-24.7-25.8-73.2-19.8-94.1C152.2,332.6,186.3,361.7,186.3,361.7Z"/><path class="cls-12" d="M182.7,454.1h-1.6a624,624,0,0,0-4.5-89.2.8.8,0,0,1,1.6-.2A644.8,644.8,0,0,1,182.7,454.1Z"/><path class="cls-11" d="M117.6,282.6s9,26.1,9.8,30.2-9.9,48.1-11.4,57.5a1.2,1.2,0,0,0,.7,1.3,204.5,204.5,0,0,1,32.1-1.2c16.8.9,25.8,7.3,38.3,1.6,0,0,1.1-.3.6-2.6s-9.5-44.2-9.3-56c.1-4.7,0-12.5-.2-20.4-.3-11.6,6.9-26.8,7-28.9s-8.4-19.9-31.6-31.7S112.8,253.3,117.6,282.6Z"/><path class="cls-19" d="M117.6,282.6l1.5,4.4a4.2,4.2,0,0,1,1.3-1.1c1.7-.6,6.1.5,13.7.1a27.9,27.9,0,0,0,21-12.9c4.5-7.8,17.1,11.5,17.4,12.5s2.4,8.1,2.2,14.4,4,31.9,5,41.4,5.8,28.1,1.2,32.6a26.3,26.3,0,0,0,6.2-2s1.1-.3.6-2.6-9.5-44.2-9.3-56c.1-4.7,0-12.5-.2-20.4-.3-11.6,6.9-26.8,7-28.9s-8.4-19.9-31.6-31.7-40.8,20.9-36,50.2Zm9.7,29.7a10.5,10.5,0,0,0,3.4,1.9c2,.5,11.7.4,10.4,1.4s-11.2,3.9-11.9,5-1.1,11.7-.5,33.4c.2,8,2.5,13.1,5.4,16.3-10.1.3-17.4,1.3-17.4,1.3a1.2,1.2,0,0,1-.7-1.3c1.5-9.4,12.1-53.4,11.4-57.5A.7.7,0,0,1,127.3,312.3Z"/><path class="cls-20" d="M170.1,171.1l3,9.1s-1.9,30.3-5.1,34.9-8.2.8-14-.5-5.5-10.4-5.9-13.1S151.7,174.1,170.1,171.1Z"/><path class="cls-18" d="M150.8,241.4c11.5,22.4,34.9,59.7,39.9,64.7a33.3,33.3,0,0,0,6.6,5.2,92.6,92.6,0,0,0,11.2,4.7c9.6,3.5,29.6,9.8,32,9.6s3.2-5.5,2.3-6.9-29.4-13.2-36.3-17.4-19-40.5-23.9-51.3C170.1,222.7,139.3,219.1,150.8,241.4Z"/><path class="cls-15" d="M172.2,185.5c14.1.4,12.8-25.3,4-31.7-5.6-4.1-22.1,2.4-30.1,2.5s-30.9,1.7-29.2,38.2c.5,13.3-1.6,23.1-4.7,31.2-7.7,19.5-13.7,54.7,8.3,58.6,20.4,3.7,31.9-3.7,36.9-23.9,0,0,.8-15.1,11.1-20.8s4.2-10.8-1.7-18.1-10.5-11-9.1-21,10.4-3.5,14.1-14.9Z"/><path class="cls-12" d="M172.2,185.5c8,.2,11-7.8,10.6-16-5.1,11-22,7.7-22,7.7.5,6.2-13.2,10.2-18.4,21.7s8.4,42.5-4.8,66.1-29.5,9.4-29.8,9.1c2.3,5.3,6.3,9.1,12.7,10.2,20.4,3.7,31.9-3.7,36.9-23.9,0,0,.8-15.1,11.1-20.8s4.2-10.8-1.7-18.1-10.5-11-9.1-21,10.4-3.5,14.1-14.9Z"/><path class="cls-12" d="M156.1,200.5c0-.2.1-.4.3-.4a.5.5,0,0,1,.5.3s.9,8.3,6.5,13.9a57.8,57.8,0,0,1,8.8,11.2c1.7,3,2.6,5.8,1.7,7.7a.5.5,0,0,1-.5.3.5.5,0,0,1-.2-.6c.7-1.7-.1-4.2-1.6-7a56.7,56.7,0,0,0-8.8-11C157.1,209,156.1,200.5,156.1,200.5Z"/><path class="cls-12" d="M181.6,167c-.1-.2.1-.4.3-.5a.4.4,0,0,1,.4.4c.1,0,3.9,23-12.9,20.3a.4.4,0,0,1-.4-.4c.1-.2.3-.4.5-.3C185.2,188.9,181.6,167.1,181.6,167Z"/><path class="cls-20" d="M300.5,364.5c2.3,4.6,8.7,16.2,6.2,22.5-.8,2-2.7,3.2-3.2,2.8s-.1-1.8-.1-1.8c-.9,2.1-1.4,2-3.2,1.3s.5-1.4.6-2.4-.2,1.9-1.7,2.2-2.5-.1-2.2-.4,1.1-2.9,1.1-2.9-1.6,2.7-2.1,2.9-4.2-3.4-2.9-4,2.7,1.7,2.1.6a25,25,0,0,1-.8-2.5c-1-3.3-1-2.6-1.6-4.7s.7-4.4.5-5.2c-1-3.6-2.4-10.4-2.4-10.4Z"/><path class="cls-21" d="M220.7,352.3l-4.6,18s-4.4,42-8.7,83.8H241c6.7-29.2,12.1-53.2,13.5-58.8C258.6,378.7,258.6,353.5,220.7,352.3Z"/><path class="cls-20" d="M264.1,160.8l3.5,10.2s-.9,28.3-4.5,33.6-10.5,4.9-17.1,3.6-6-9.6-6.5-12.6S243.2,164.4,264.1,160.8Z"/><path class="cls-22" d="M245.6,195.3l7,1.8s-3.9,22.1-5,23.1-22.6-2.6-23.6-5.1,1.8-7.3,2.3-10.7a47.1,47.1,0,0,1,1.7-7.1Z"/><path class="cls-5" d="M248.7,216.7a3.1,3.1,0,0,1,1.3,2c.1.8.3,2.9.5,4.3a8.7,8.7,0,0,1,.1,1.1s-1.2,1.9-7.7.9-18.5-4.1-19.4-5,.3-6.4.3-6.4S240.3,216.9,248.7,216.7Z"/><path class="cls-5" d="M206.6,235.9a39.3,39.3,0,0,0-8.1,13.8c-2.9,8.4-7.7,51.8-8.1,57.4s26.8,41.1,27.6,41.8.3.6,1.4-.1,5.2-4.2,4.9-6-20.2-29.1-20.7-35.5,18.2-44.5,18.8-51.9S213.5,231.5,206.6,235.9Z"/><path class="cls-23" d="M281.3,365l6.8,5.4s-1.3,38.9-2.9,83.7H254.6c-1.6-18.5-3-33-4-37.8-3.5-17.7-12.8-47.3-11.1-56.3S281.3,365,281.3,365Z"/><path class="cls-21" d="M281.3,365l1,.8c0,5.9-.5,44.3-1.1,88.3h-2.1c.7-47.8,1.2-88.9,1.2-89.1v-.4Z"/><path class="cls-13" d="M250.5,223.1s19.7,6.1,21.4,9.2,7.6,32.7,8.1,68.8,8.8,65.5,9.2,72.5c0,0-.3,1.5-1,1.8s-5.8,1.5-23.1,1-40.7-3.1-48.9-1.1c0,0-1.8.7-2.2-2.1s8.8-48.5,8.5-67.5-19.6-59.1-20.1-62.5,13.8-19.4,20.8-24Z"/><path class="cls-12" d="M231.9,374.6c-6.8-.2-12.4-.1-15.7.7,0,0-1.8.7-2.2-2.1s8.8-48.5,8.5-67.5-19.6-59.1-20.1-62.5,13.8-19.4,20.8-24l2.3.3c-3.4,3-10.8,9.6-13,13.3s1.8,22.4,4.9,31.9,10,31,10.8,32.8,4.6,2.5,6.8,3.7-4,2.3-5.1,4.5S231,349.7,231.9,374.6Z"/><path class="cls-5" d="M272.2,232.1c1.5,1.8,3.8,5.3,5.6,12.4,2.9,11.4,8.5,52.6,12.4,71.3s12.6,47.8,12.6,49.4a4.8,4.8,0,0,1-2.4,3.9c-1.3.6-4.8,2.2-5.8,2.5s-2.5.1-3.1-.7-13.1-31.5-18-52.3c-3.6-15.6-12.2-48-15.3-64.4C255.8,241.1,266.1,225.2,272.2,232.1Z"/><path class="cls-12" d="M267.6,171s4.1-1.6,6.1-4.3-2.1-20.7-4.5-23.8-10.3,2.9-13.8,3-31.6-18.1-33.9,10.9a2.7,2.7,0,0,0-2.2-1.6c-1.6-.2-1.4,2.9.7,3.7a16.8,16.8,0,0,0-3.9,11.6c.3,7,10.2,29.1,10.2,33.9,0,0,13.8,2.2,18.4.3s8.5-7.3,8.5-9.3-.1-2.5-.1-3.2a11.5,11.5,0,0,0-1.1-4.1c-.9-2.2-1.9-5-.7-6.4s5.1-1.2,5.9,4.5c0,0,.1.5.4.5s.4-.4.4-.9-.5-5.8-.5-6.6,4.4-7.4,4-11.2C261.5,168,265,170.8,267.6,171Z"/><path class="cls-15" d="M273.1,154.5c-1.1-5.1-2.7-10.1-3.9-11.6-2.4-3.2-10.3,2.9-13.8,3s-31.6-18.1-33.9,10.9a2.7,2.7,0,0,0-2.2-1.6c-1.6-.2-1.4,2.9.7,3.7a17.2,17.2,0,0,0-4,10.9c1.7,3,5,6,11.3,7.3,14.5,3,28.2-15.1,29.1-18.7,0,0,.1-.9.8-.4S271.4,166.1,273.1,154.5Z"/><path class="cls-12" d="M267,170.2c-.2,0-.4.1-.4.2a.4.4,0,0,0,.2.5s3,.9,7.2-2.5a.3.3,0,0,0,0-.5h-.4C269.6,171,267,170.2,267,170.2Z"/><path class="cls-15" d="M221.7,157.9a.4.4,0,0,0,.5.2.8.8,0,0,0,.2-.4c0-.1-2.6-6.9,2.8-14.9.1-.1.1-.3-.1-.5s-.3,0-.5.1C219,150.7,221.7,157.9,221.7,157.9Z"/><path class="cls-22" d="M295.8,380.3c-.6-3.6,0-7.1.9-7.1s4-1.9,6.1-4.1c-.3-.6-.5-1.1-.8-1.6a4.1,4.1,0,0,1-1.6,1.6c-1.3.6-4.8,2.2-5.8,2.5h-1.7l.3,1.3c.2.8-.8,4.3-.5,5.2s.6,1.4,1.6,4.7a25,25,0,0,0,.8,2.5c.6,1.1-1.5-.8-2.1-.6a.5.5,0,0,0-.3.4c1.1,1.3,2.8,2.6,3.5,2.2S296.3,383.8,295.8,380.3Z"/><path class="cls-17" d="M568.4,323.2c21.1-11.2,26.4,13.2,18.2,33.4C580,373.1,550.9,421.1,539,453H527.6C527.1,408.8,543.8,336.3,568.4,323.2Z"/><path class="cls-24" d="M523.7,230.6c-24.2-21.8-39.4,8.7-35.2,38.1S526,401.9,520,438.3c-2.3,14.1.6,13.2,5.2,4.1C548.3,396.8,557,260.6,523.7,230.6Z"/><path class="cls-25" d="M522.9,448.5c.4,1.2,1.2.6,2.3-1.4,17.8-72.5-10-180.8-10-181.2a.9.9,0,0,0-1.2-.7,1.1,1.1,0,0,0-.6,1.4C513.5,267,541.6,376.8,522.9,448.5Z"/><path class="cls-17" d="M470.8,300.4c-23.4-10.2-27.1,16.3-16.7,37.2s57.6,85.2,65,115.4h6.1C528.4,410.3,501.9,313.9,470.8,300.4Z"/><path class="cls-24" d="M523.3,453c-5.2-57.3-49.5-122.9-49.6-123.1a1,1,0,0,0-1.2-.3,1.2,1.2,0,0,0-.2,1.3c.2.2,44.2,65.4,49.4,122.1Z"/><path class="cls-26" d="M492.1,434.7h68.6a3.8,3.8,0,0,1,3.7,3.7V453H488.3V438.4A3.8,3.8,0,0,1,492.1,434.7Z"/><path class="cls-21" d="M491.3,434.7h54.8c1.6,0,2.9,1.7,2.9,3.7V453H488.3V438.4C488.3,436.4,489.7,434.7,491.3,434.7Z"/><path class="cls-12" d="M672.9,460H63.5a5,5,0,0,1-5-5h0a5.1,5.1,0,0,1,5-5H672.9a5,5,0,0,1,5,5h0A5,5,0,0,1,672.9,460Z"/></g></svg>