<?xml version="1.0" encoding="utf-8"?>
<!-- Generator: Adobe Illustrator 22.0.1, SVG Export Plug-In . SVG Version: 6.00 Build 0)  -->
<svg version="1.1" id="Layer_1" xmlns="http://www.w3.org/2000/svg" xmlns:xlink="http://www.w3.org/1999/xlink" x="0px" y="0px"
	 viewBox="0 0 1920 1080" style="enable-background:new 0 0 1920 1080;" xml:space="preserve">
<style type="text/css">
	.st0{display:none;}
	.st1{display:inline;fill:#1E1E1E;}
	.st2{display:inline;}
	.st3{fill:#1E1E1E;}
	.st4{fill:#FFFFFF;}
	.st5{opacity:0.79;}
	.st6{fill:#FB8122;}
	.st7{display:inline;opacity:0.64;}
	.st8{opacity:0.68;fill:#FB8122;}
</style>
<g class="st0">
	<path class="st1" d="M909,488H642.7c-7.2,0-13-5.8-13-13V208.7c0-7.2,5.8-13,13-13H909c7.2,0,13,5.8,13,13V475
		C922,482.2,916.2,488,909,488z M642.7,199.7c-5,0-9,4-9,9V475c0,5,4,9,9,9H909c5,0,9-4,9-9V208.7c0-5-4-9-9-9H642.7z"/>
</g>
<g class="st0">
	<g class="st2">
		<g>
			
				<rect x="604.1" y="341.7" transform="matrix(0.7487 -0.6629 0.6629 0.7487 -62.8113 581.5453)" class="st3" width="263.1" height="63.8"/>
		</g>
		<g>
			
				<rect x="780.8" y="293.6" transform="matrix(0.7299 -0.6835 0.6835 0.7299 -9.1695 627.9082)" class="st4" width="18.4" height="63.8"/>
		</g>
		<g>
			<polygon class="st3" points="616,436.9 589.9,505.9 658.3,484.7 			"/>
		</g>
		<g class="st5">
			<path class="st6" d="M793.6,694.2H399.7c-10.2,0-18.4-8.2-18.4-18.4V282c0-10.1,8.2-18.4,18.3-18.4l195.8-0.8c0,0,0,0,0.1,0
				c10.1,0,18.4,8.2,18.4,18.3c0,10.2-8.2,18.4-18.3,18.5l-177.5,0.7v357.2h357l-0.7-179.6c0-10.2,8.2-18.4,18.3-18.5c0,0,0,0,0.1,0
				c10.1,0,18.4,8.2,18.4,18.3l0.8,198.1c0,4.9-1.9,9.6-5.4,13.1C803.2,692.3,798.5,694.2,793.6,694.2z"/>
		</g>
		<g>
			<rect x="450.4" y="572.2" class="st6" width="299.6" height="23"/>
		</g>
		<g>
			<rect x="450" y="487" class="st6" width="125.3" height="23"/>
		</g>
	</g>
	<g class="st2">
		<path class="st3" d="M952,884.9H272.3c-29.4,0-53.3-23.9-53.3-53.3V151.9c0-29.4,23.9-53.3,53.3-53.3H952
			c29.4,0,53.3,23.9,53.3,53.3v679.7C1005.2,861,981.3,884.9,952,884.9z M272.3,135.4c-9.1,0-16.5,7.4-16.5,16.5v679.7
			c0,9.1,7.4,16.5,16.5,16.5H952c9.1,0,16.5-7.4,16.5-16.5V151.9c0-9.1-7.4-16.5-16.5-16.5H272.3z"/>
	</g>
</g>
<g>
	<path class="st3" d="M1010,909.8H330.3c-29.4,0-53.3-23.9-53.3-53.3V176.8c0-29.4,23.9-53.3,53.3-53.3H1010
		c29.4,0,53.3,23.9,53.3,53.3v679.7C1063.2,885.9,1039.3,909.8,1010,909.8z M330.3,160.3c-9.1,0-16.5,7.4-16.5,16.5v679.7
		c0,9.1,7.4,16.5,16.5,16.5H1010c9.1,0,16.5-7.4,16.5-16.5V176.8c0-9.1-7.4-16.5-16.5-16.5H330.3z"/>
</g>
<g class="st0">
	<path class="st1" d="M1866.7,899H1187c-29.4,0-53.3-23.9-53.3-53.3V166.1c0-29.4,23.9-53.3,53.3-53.3h679.7
		c29.4,0,53.3,23.9,53.3,53.3v679.7C1920,875.1,1896.1,899,1866.7,899z M1187,149.6c-9.1,0-16.5,7.4-16.5,16.5v679.7
		c0,9.1,7.4,16.5,16.5,16.5h679.7c9.1,0,16.5-7.4,16.5-16.5V166.1c0-9.1-7.4-16.5-16.5-16.5H1187z"/>
	<g class="st7">
		<path class="st6" d="M1494.7,698.8c-120.6,0-218.8-98.1-218.8-218.8s98.1-218.8,218.8-218.8s218.8,98.1,218.8,218.8
			S1615.3,698.8,1494.7,698.8z M1494.7,299.5c-99.6,0-180.5,81-180.5,180.5s81,180.5,180.5,180.5c99.6,0,180.5-81,180.5-180.5
			S1594.2,299.5,1494.7,299.5z"/>
	</g>
	<g class="st2">
		<path class="st6" d="M1494.7,600c-68,0-123.2-55.3-123.2-123.2s55.3-123.2,123.2-123.2s123.2,55.3,123.2,123.2
			S1562.6,600,1494.7,600z M1494.7,375.1c-56.1,0-101.7,45.6-101.7,101.7s45.6,101.7,101.7,101.7c56.1,0,101.7-45.6,101.7-101.7
			S1550.8,375.1,1494.7,375.1z"/>
	</g>
	<g class="st2">
		<path class="st6" d="M1498.4,547.2c-37,0-67.2-30.1-67.2-67.2s30.1-67.2,67.2-67.2s67.2,30.1,67.2,67.2S1535.4,547.2,1498.4,547.2
			z M1498.4,424.6c-30.6,0-55.4,24.9-55.4,55.4s24.9,55.4,55.4,55.4s55.4-24.9,55.4-55.4S1528.9,424.6,1498.4,424.6z"/>
	</g>
	<polygon class="st1" points="1757.1,774.1 1733.1,790.8 1621.8,653.1 1589.3,723.4 1494.7,480 1712.9,617.5 1642.7,637 	"/>
</g>
<circle class="st8" cx="652.6" cy="412.1" r="110.8"/>
<path class="st6" d="M443,756.6c0,0-26.1-182.4,130.3-182.4s310-41.7,310,182.4H443z"/>
<rect x="856.2" y="385.7" class="st3" width="22.5" height="120"/>
<rect x="855.7" y="374.4" transform="matrix(-1.836970e-16 1 -1 -1.836970e-16 1301.374 -432.5405)" class="st3" width="22.5" height="120"/>
</svg>
