<svg id="Layer_1" data-name="Layer 1" xmlns="http://www.w3.org/2000/svg" viewBox="0 0 1364.7 511.2"><defs><style>.cls-1{fill:#adadad;}.cls-2{fill:#323232;}.cls-3{fill:#232323;}</style></defs><title>savage_bg</title><polygon class="cls-1" points="0 0 0 188.2 108.7 142.7 108.7 90.7 208.7 46.7 208.7 0 0 0"/><polygon class="cls-2" points="0 0 0 170.1 91.7 131.7 91.7 79.7 191.7 35.7 191.7 0 0 0"/><polygon class="cls-3" points="0 0 0 151.4 75.7 119.7 75.7 67.7 175.7 23.7 175.7 0 0 0"/><polygon class="cls-1" points="1364.7 511.2 1364.7 323 1256 368.5 1256 420.5 1156 464.5 1156 511.2 1364.7 511.2"/><polygon class="cls-2" points="1364.7 511.2 1364.7 341.1 1273 379.5 1273 431.5 1173 475.5 1173 511.2 1364.7 511.2"/><polygon class="cls-3" points="1364.7 511.2 1364.7 359.8 1289 391.5 1289 443.5 1189 487.5 1189 511.2 1364.7 511.2"/></svg>