<svg height="512" viewBox="0 0 64 64" width="512" xmlns="http://www.w3.org/2000/svg"><path d="m61 3v58l-3-4-3 4-3-4-3 4-3-4-3 4-3-4-3 4-3-4-3 4-3-4-3 4-3-4-3 4v-58l3 4 3-4 3 4 3-4 3 4 3-4 3 4 3-4 3 4 3-4 3 4 3-4 3 4z" fill="#e6e7e8"/><path d="m61 7.26v53.74l-3-4-3 4-3-4-3 4-3-4-3 4-3-4-3 4-3-4-3 4-3-4-3 4-3-4-3 4v-7.7a110.444 110.444 0 0 0 42-46.04z" fill="#d8d7da"/><path d="m26.58 48.79-2.58-.7v2.91l-5 5-2 2-7-7v-2.91l-2.58.7a6.013 6.013 0 0 0 -4.42 5.79v6.42h28v-6.42a6.013 6.013 0 0 0 -4.42-5.79z" fill="#3d9ae2"/><path d="m21.36 47.37-2.36 1.96-2 1.67-4.36-3.63-2.64.72v2.91l7 7 2-2 5-5v-2.91z" fill="#e6e7e8"/><path d="m21.36 47.37-2.36 1.96-2 1.67-4.36-3.63 1.36-.37v-2.58a8.093 8.093 0 0 0 3 .58 8.239 8.239 0 0 0 2-.25 8.361 8.361 0 0 0 1-.33v2.58z" fill="#ffb655"/><path d="m20.34 31.68-.34-.68-1 1-.66.66a7.985 7.985 0 0 1 -5.65 2.34h-3.69v2a8.014 8.014 0 0 0 2.34 5.66 7.986 7.986 0 0 0 5.66 2.34 8.239 8.239 0 0 0 2-.25 8.361 8.361 0 0 0 1-.33 8.008 8.008 0 0 0 5-7.42v-2l.01-.04a5.986 5.986 0 0 1 -4.67-3.28z" fill="#ffc477"/><path d="m20 44.42v1a8.361 8.361 0 0 1 -1 .33 8.239 8.239 0 0 1 -2 .25 8.093 8.093 0 0 1 -3-.58v-1a8.093 8.093 0 0 0 3 .58 8.239 8.239 0 0 0 2-.25 8.361 8.361 0 0 0 1-.33z" fill="#ffa733"/><path d="m19 23.22a9.356 9.356 0 0 0 -2-.22 9 9 0 0 0 -9 9v3h4.69a7.985 7.985 0 0 0 5.65-2.34l.66-.66 1-1 .34.68a5.986 5.986 0 0 0 4.67 3.28 5.374 5.374 0 0 0 .7.04h.29v-3a9.008 9.008 0 0 0 -7-8.78z" fill="#57565c"/><path d="m17 42a4 4 0 0 1 -4-4h2a2 2 0 0 0 4 0h2a4 4 0 0 1 -4 4z" fill="#ffa733"/><path d="m35 16h-2a1 1 0 0 1 0-2h2a1 1 0 0 1 1 1h2a3 3 0 0 0 -3-3v-2h-2v2a3 3 0 0 0 0 6h2a1 1 0 0 1 0 2h-2a1 1 0 0 1 -1-1h-2a3 3 0 0 0 3 3v2h2v-2a3 3 0 0 0 0-6z" fill="#ff5023"/><g fill="#acabb1"><path d="m44 20h12v2h-12z"/><path d="m44 16h2v2h-2z"/><path d="m48 16h8v2h-8z"/></g><path d="m30 28h18v2h-18z" fill="#c6c5ca"/><path d="m50 28h6v2h-6z" fill="#acabb1"/><path d="m30 32h18v2h-18z" fill="#c6c5ca"/><path d="m50 32h6v2h-6z" fill="#acabb1"/><path d="m30 36h18v2h-18z" fill="#c6c5ca"/><path d="m50 36h6v2h-6z" fill="#acabb1"/><path d="m30 40h18v2h-18z" fill="#c6c5ca"/><path d="m50 40h6v2h-6z" fill="#acabb1"/><path d="m30 44h18v2h-18z" fill="#c6c5ca"/><path d="m50 44h6v2h-6z" fill="#acabb1"/></svg>