<?xml version="1.0" encoding="utf-8"?>
<!-- Generator: Adobe Illustrator 22.0.1, SVG Export Plug-In . SVG Version: 6.00 Build 0)  -->
<svg version="1.1" id="Layer_1" xmlns="http://www.w3.org/2000/svg" xmlns:xlink="http://www.w3.org/1999/xlink" x="0px" y="0px"
	 viewBox="0 0 1366 768" style="enable-background:new 0 0 1366 768;" xml:space="preserve">
<style type="text/css">
	.st0{fill:#FFFFFF;}
	.st1{opacity:0.58;}
	.st2{fill:#FB8122;}
</style>
<rect y="0" class="st0" width="1366" height="768"/>
<g class="st1">
	<path class="st2" d="M159.8-0.4H0.1c0,0.3,0,0.6,0,0.9v163.3c1.1,0,2.2,0,3.3,0C89.9,163.9,160,93.7,160,7.2
		C160,4.7,159.9,2.1,159.8-0.4z"/>
</g>
<g class="st1">
	<circle class="st2" cx="199.5" cy="275.5" r="63.5"/>
</g>
<g class="st1">
	<circle class="st2" cx="246.5" cy="323.5" r="31.5"/>
</g>
<g class="st1">
	<circle class="st2" cx="1205.5" cy="439.5" r="63.5"/>
</g>
<g class="st1">
	<circle class="st2" cx="1158.5" cy="487.5" r="31.5"/>
</g>
<g class="st1">
	<circle class="st2" cx="115.5" cy="535.5" r="11.5"/>
</g>
<g class="st1">
	<circle class="st2" cx="1090.5" cy="163.5" r="11.5"/>
</g>
<g class="st1">
	<circle class="st2" cx="1033.5" cy="676.5" r="11.5"/>
</g>
<g class="st1">
	<circle class="st2" cx="487.5" cy="742.5" r="19.5"/>
</g>
<g class="st1">
	<circle class="st2" cx="500.5" cy="726.5" r="9.5"/>
</g>
</svg>
