<svg enable-background="new 0 0 140 140" height="512" viewBox="0 0 140 140" width="512" xmlns="http://www.w3.org/2000/svg"><circle cx="70" cy="70" fill="#de594e" r="64"/><path d="m111.6166458 69.9412155-31.829956-31.8200683c-.460022-.6098633-1.0200195-1.0200195-1.6100464-1.2900391l-4.7399902-4.7399902c-1.6599731-3.329834-10.0299683-5.5397949-18.039978-3.329834-8.0200195 2.2099609-11.5599976 7.2597656-12.9500122 15.7597656-.7399902 4.5800781.0100098 7.7202148.8499756 9.6501465-.5799561.75-.8099976 2.130127-.5199585 3.6398926.2299805 1.2202148.7600098 2.2299805 1.3900146 2.8300781h-.0100098l3.7000122 3.6999512c1.6599731 3.130127 3.7599487 5.9802246 6.1599731 8.0400391l-1.6500244 2.7199707h-.9400024c-.5599976.0700684-1.1099854.130127-1.6499634.2299805-11.2800293 2.0600586-19.2300415 12.1899414-19.4899902 23.6101074l34.8565674 34.8566971c1.6049805.1203613 3.2208862.2021484 4.8567505.2021484 28.9296875 0 53.3648682-19.1997147 61.2873001-45.5481033l-18.6106644-18.6108398c-.3599854.0500487-.709961.0700682-1.0599976.1000975z" opacity=".1"/><path d="m79.7098007 53.6217499c-1.149025-.2225189-2.408699 1.2916756-2.8134995 3.381916-.4048157 2.0903511.1985245 3.965332 1.3475494 4.187851 1.1490707.2225304 2.408699-1.2916718 2.8135147-3.3820229.4047929-2.0902405-.1984862-3.9652138-1.3475646-4.1877441z" fill="#feda6f"/><path d="m44.1213646 53.6217499c1.1490211-.2225189 2.4087029 1.2916756 2.8134995 3.381916.4048157 2.0903511-.1985207 3.965332-1.3475456 4.187851-1.1490746.2225304-2.4087029-1.2916718-2.8135185-3.3820229-.4047967-2.0902405.1984862-3.9652138 1.3475646-4.1877441z" fill="#feda6f"/><path d="m71.4152222 75.0660782-1.9903717-3.8745728h-14.6940613l-2.3593483 3.9083405 1.2246704 6.4172134s6.9782639 2.0991516 9.361084 2.2126236c2.3828239.1134644 9.5312843-.5106049 9.871685-1.3048782.3404083-.7942734-1.4136581-7.3587265-1.4136581-7.3587265z" fill="#f2c144"/><path d="m78.7769089 50.1317863c0 1.8871956.8405914 3.9208679.2920532 6.0710831-2.2818527 9.1933098-9.1057281 19.4839668-17.1581841 19.4839668-7.9647369 0-14.7007599-9.9831772-17.0703354-19.0672112-.6144218-2.3036842-.9434624-4.5417519-.9434624-6.5384903 0-9.6100731 8.5023575-10.9655876 18.0028839-11.492157.2632866-.021965-.1526451-2.0223846.1106415-2.0223846l-.0549011 1.2165985c.394928 0 1.147995-2.0545731 1.542923-2.0326118.3290405.021965.5589752 2.14011.8880157 2.1840363.1975327 0-.7974091-1.2916794-.6000099-1.2480202 8.6449166 1.3383904 14.9903756 4.4273071 14.9903756 13.4451904z" fill="#fcd462"/><path d="m94.634758 98.945137c-.2565613-11.4600754-8.2753372-21.6348953-19.6098099-23.6430893-.5396805-.0842133-1.0964508-.1684265-1.6530075-.2359695h-1.9567184c-2.7494583 2.9518661-6.0050278 4.8914948-9.5132446 4.8914948-3.508625 0-6.7639923-1.9396286-9.5305367-4.8577271h-.9444847c-.5565643.067543-1.1133308.1348724-1.6530113.2359695-11.2788773 2.0565872-19.2282677 12.1900101-19.491003 23.6093216z" fill="#27a2db"/><path d="m80.8315048 40.7352524c-.9860611-5.9164467-6.9556961-4.0967598-6.9556961-4.0967598l-.0075073.0148125c-.0040054-.0036774-.0079498-.0071373-.012001-.0108109l.0195084-.0040016s1.2176666-1.221447-.4413223-4.5492744c-1.65905-3.3277187-10.0231552-5.539711-18.0416565-3.3277187-8.0185547 2.212101-11.5606956 7.2602711-12.9431648 15.7627468-1.1567497 7.114006 1.2893944 10.7805176 2.1212425 11.7915993l1.1057243 3.4914932h.9691925l1.2889061-6.3896103c4.7108917-3.4250107 11.5010223-3.6487846 18.5399017-9.1289291 1.1073456 4.3718796 4.0452423 8.4517746 9.689003 11.4182129l.827095 4.1003265h.9691925l.9031448-2.8518524c.0029678.0011902.0056152.0024872.0085907.0036774 1.7205048-4.8677446 2.9459534-10.3073541 1.9598465-16.2239114z" fill="#344d5b"/><path d="m95.4792709 66.9780045v-.0766983s-.0248413.0148926-.0667496.0389862c-.0419159-.0240936-.0667496-.0389862-.0667496-.0389862v.0766983c-.9943008.5587692-7.6679382 4.0515137-17.1960144 2.8657532v7.5306473c0 5.3957748 1.4388962 10.7478409 4.4286194 15.4854126 2.5794144 4.0872192 6.5926361 8.2592926 12.767395 10.5894928v.0531616c.0227432-.0084915.0440445-.0180969.0667496-.0265808.0227051.0084839.0439987.0180893.0667496.0265808v-.0531616c6.1747131-2.3302002 10.1879349-6.5022736 12.7673492-10.5894928 2.9897232-4.7375717 4.4286194-10.0896378 4.4286194-15.4854126v-7.5306473c-9.5280761 1.1857604-16.2016677-2.306984-17.1959686-2.8657532z" fill="#ededed"/><path d="m95.4123306 100.4625015c-4.2969589-1.835556-7.8151016-4.8907089-10.4683838-9.0951309-2.6150513-4.1436539-3.9971771-8.981781-3.9971771-13.9926758v-4.5083008c.3731918.012291.745697.0184402 1.1168365.0184402h.0017014c6.2103577 0 10.928978-1.7119522 13.2432251-2.7642517l.0600891.0355072.1017456-.0559998c2.2978592 1.0502548 7.0379944 2.7847443 13.2893219 2.7847443.3718185 0 .7446671-.0061493 1.1185379-.0184402v4.5083008c0 5.0108948-1.3821259 9.8490219-3.9971771 13.9926758-2.6532898 4.204422-6.1714249 7.2595749-10.4687195 9.0951309z" fill="#dbd8dd"/></svg>